<?xml version="1.0" encoding="UTF-8"?>
<svg width="20px" height="19px" viewBox="0 0 20 19" version="1.1" xmlns="http://www.w3.org/2000/svg" xmlns:xlink="http://www.w3.org/1999/xlink">
    <!-- Generator: sketchtool 53.2 (72643) - https://sketchapp.com -->
    <title>763C07A8-E78E-4929-88C8-594E23008490</title>
    <desc>Created with sketchtool.</desc>
    <defs>
        <path d="M4.20900827,18.6584223 C4.00411402,18.6498976 3.81402744,18.5516655 3.69142633,18.3909486 C3.56882522,18.2302317 3.52673322,18.0241026 3.57681509,17.8296849 L5.11419691,11.7897607 L0.243421886,7.79123261 C0.0310051076,7.61687159 -0.0522004558,7.33409321 0.0329823464,7.07604303 C0.118165149,6.81799285 0.354757537,6.63610587 0.631360523,6.61602316 L6.98204691,6.18058614 L9.36714691,0.416898058 C9.47125612,0.164947302 9.7213862,-1.77635684e-15 9.99934123,-1.77635684e-15 C10.2772963,-1.77635684e-15 10.5274263,0.164947302 10.6315355,0.416898058 L13.0166355,6.18058614 L19.3625333,6.61602316 C19.63998,6.63439731 19.8782118,6.8156495 19.9645682,7.07406497 C20.0509245,7.33248043 19.9680992,7.61627157 19.7552605,7.79123261 L14.8796946,11.7944257 L16.4170787,17.8296849 C16.4827888,18.0923817 16.3796273,18.3678566 16.1559511,18.5269809 C15.9322749,18.6861053 15.6324206,18.6973378 15.3969446,18.5554133 L9.99934009,15.2592128 L4.60173555,18.5554133 C4.48459004,18.6279993 4.34758719,18.663934 4.20900827,18.6584223 L4.20900827,18.6584223 Z M5.30577191,16.5561448 L9.63534918,13.9107429 C9.85655594,13.7754653 10.1373356,13.7754653 10.3585424,13.9107429 L14.6881196,16.5514575 L13.4524674,11.7101658 C13.3908041,11.4632816 13.478108,11.2036009 13.6775674,11.0406181 L17.585681,7.82868641 L12.4945946,7.4822277 C12.2354446,7.46490315 12.0088765,7.30513207 11.9102946,7.07019152 L9.99934009,2.44425465 L8.08359918,7.07019152 C7.98501697,7.30513275 7.75844782,7.46490396 7.49929691,7.4822277 L2.41300145,7.82868641 L6.32111509,11.0406181 C6.51882205,11.2046808 6.60421066,11.4641851 6.54142645,11.7101658 L5.30577191,16.5561448 L5.30577191,16.5561448 Z" id="path-1"></path>
    </defs>
    <g id="#Influencer" stroke="none" stroke-width="1" fill="none" fill-rule="evenodd">
        <g id="hashtag-influencer_12_favorites-alt-copy" transform="translate(-255.000000, -227.000000)">
            <g id="icon-star" transform="translate(255.000000, 227.000000)">
                <mask id="mask-2" fill="white">
                    <use xlink:href="#path-1"></use>
                </mask>
                <use id="Mask" fill="#FFFFFF" fill-rule="nonzero" xlink:href="#path-1"></use>
            </g>
        </g>
    </g>
</svg>