<?xml version="1.0" encoding="UTF-8"?>
<svg width="20px" height="19px" viewBox="0 0 20 19" version="1.1" xmlns="http://www.w3.org/2000/svg" xmlns:xlink="http://www.w3.org/1999/xlink">
    <!-- Generator: sketchtool 53.2 (72643) - https://sketchapp.com -->
    <title>B2BDA9F4-6481-4A1D-8971-08947FBBC615@1x</title>
    <desc>Created with sketchtool.</desc>
    <defs>
        <path d="M4.20896392,18.4907988 C4.00407182,18.4823507 3.81398725,18.3850011 3.69138743,18.2257281 C3.56878761,18.066455 3.52669606,17.8621777 3.5767774,17.6695066 L5.11414301,11.6838438 L0.243419321,7.72123775 C0.0310047809,7.54844315 -0.0521999057,7.26820519 0.0329819988,7.01247329 C0.118163903,6.75674138 0.354753798,6.57648843 0.631353869,6.55658614 L6.98197333,6.125061 L9.36704819,0.41315273 C9.4711563,0.163465449 9.72128375,-1.77635684e-15 9.99923585,-1.77635684e-15 C10.2771879,-1.77635684e-15 10.5273154,0.163465449 10.6314235,0.41315273 L13.0164984,6.125061 L19.3623292,6.55658614 C19.639773,6.57479522 19.8780023,6.75441908 19.9643578,7.01051299 C20.0507132,7.2666069 19.9678888,7.54784852 19.7550524,7.72123775 L14.8795378,11.688467 L16.4169057,17.6695066 C16.4826151,17.9298434 16.3794547,18.2028434 16.1557809,18.3605382 C15.932107,18.518233 15.6322559,18.5293647 15.3967824,18.3887152 L9.99923471,15.1221271 L4.60168705,18.3887152 C4.48454278,18.4606491 4.34754138,18.4962609 4.20896392,18.4907988 L4.20896392,18.4907988 Z" id="path-1"></path>
    </defs>
    <g id="#Influencer" stroke="none" stroke-width="1" fill="none" fill-rule="evenodd">
        <g id="hashtag-influencer_12_favorites-alt-copy" transform="translate(-297.000000, -228.000000)">
            <g id="icon-star-full" transform="translate(297.000000, 228.000000)">
                <mask id="mask-2" fill="white">
                    <use xlink:href="#path-1"></use>
                </mask>
                <use id="Mask" fill="#FFFFFF" fill-rule="nonzero" xlink:href="#path-1"></use>
            </g>
        </g>
    </g>
</svg>