<?xml version="1.0" encoding="UTF-8"?>
<svg width="20px" height="16px" viewBox="0 0 20 16" version="1.1" xmlns="http://www.w3.org/2000/svg" xmlns:xlink="http://www.w3.org/1999/xlink">
    <!-- Generator: sketchtool 53.2 (72643) - https://sketchapp.com -->
    <title>2F4EAE63-65A2-40B2-BCE7-49E9A6383795</title>
    <desc>Created with sketchtool.</desc>
    <g id="#Influencer" stroke="none" stroke-width="1" fill="none" fill-rule="evenodd">
        <g id="hashtag-influencer_12_favorites-alt-copy" transform="translate(-129.000000, -271.000000)" fill="#FFFFFF" fill-rule="nonzero">
            <g id="icon-video" transform="translate(129.000000, 271.000000)">
                <g id="Group">
                    <path d="M3.50000104,0.133579918 C1.56967617,0.133579918 1.07386364e-06,1.75103341 1.07386364e-06,3.74012722 L1.07386364e-06,11.9836849 C1.07386364e-06,13.9728044 1.56967617,15.5902682 3.50000104,15.5902682 L16.5000019,15.5902682 C18.4303272,15.5902682 20.0000011,13.9728044 20.0000011,11.9836849 L20.0000011,3.74012722 C20.0000011,1.75103341 18.4303272,0.133579918 16.5000019,0.133579918 L3.50000104,0.133579918 Z M3.50000104,1.16401464 L16.5000019,1.16401464 C17.8936269,1.16401464 19.000001,2.30407326 19.000001,3.74012722 L19.000001,11.9836849 C19.000001,13.4197646 17.8936269,14.5598232 16.5000019,14.5598232 L3.50000104,14.5598232 C2.10637596,14.5598232 1.00000114,13.4197646 1.00000114,11.9836849 L1.00000114,3.74012722 C1.00000114,2.30407326 2.10637596,1.16401464 3.50000104,1.16401464 Z M7.71875131,3.99773847 C7.45489407,4.0147901 7.24950935,4.24053693 7.25000128,4.51296099 L7.25000128,11.2108511 C7.24848901,11.4747673 7.44074136,11.6971951 7.69532655,11.7260736 C7.79498163,11.737575 7.89569058,11.7179366 7.98437632,11.6697083 L13.9843767,8.32076193 C14.1475119,8.23127227 14.2494457,8.05636145 14.2494457,7.86592349 C14.2494457,7.67548554 14.1475119,7.50057472 13.9843767,7.41108506 L7.98437632,4.06214129 C7.90334128,4.01571317 7.81137502,3.99341525 7.71875131,3.99773847 L7.71875131,3.99773847 Z M8.25000134,5.38239898 L12.7031266,7.86190476 L8.25000134,10.3494506 L8.25000134,5.38239898 Z" id="Shape"></path>
                </g>
            </g>
        </g>
    </g>
</svg>