<?xml version="1.0" encoding="UTF-8"?>
<svg width="16px" height="16px" viewBox="0 0 16 16" version="1.1" xmlns="http://www.w3.org/2000/svg" xmlns:xlink="http://www.w3.org/1999/xlink">
    <!-- Generator: sketchtool 53.2 (72643) - https://sketchapp.com -->
    <title>C97BC0FF-6873-4595-BB51-906088992E04</title>
    <desc>Created with sketchtool.</desc>
    <defs>
        <path d="M15.69686,14.2776911 L10.89782,9.46021841 C11.572685,8.48673947 11.9976,7.28861154 11.9976,5.99063963 C11.9976,2.69578783 9.29814001,0 5.99880001,0 C2.69946,0 0,2.69578783 0,5.99063963 C0,9.28549142 2.69946,11.9812793 5.99880001,11.9812793 C7.29854001,11.9812793 8.49830001,11.5569423 9.47310501,10.8829953 L14.29714,15.700468 C14.69706,16.099844 15.321935,16.099844 15.721855,15.700468 C16.09678,15.301092 16.09678,14.6521061 15.69686,14.2776911 Z M1.5004811,5.99063963 C1.5004811,3.5199298 3.52472461,1.49843994 5.99880001,1.49843994 C8.47287541,1.49843994 10.4971189,3.5199298 10.4971189,5.99063963 C10.4971189,8.46134945 8.47287541,10.4828393 5.99880001,10.4828393 C3.52472461,10.4828393 1.5004811,8.46134945 1.5004811,5.99063963 Z" id="path-1"></path>
    </defs>
    <g id="Page-1" stroke="none" stroke-width="1" fill="none" fill-rule="evenodd">
        <g id="hashtag-influencer_12_favorites-alt" transform="translate(-1421.000000, -213.000000)">
            <g id="icons/icon-search" transform="translate(1420.000000, 212.000000)">
                <g id="icon-search" transform="translate(1.000000, 1.000000)">
                    <mask id="mask-2" fill="white">
                        <use xlink:href="#path-1"></use>
                    </mask>
                    <g id="Mask" fill-rule="nonzero"></g>
                    <g id="mixin/icon-fill/black" mask="url(#mask-2)" fill="#FFFFFF">
                        <g transform="translate(-1.000000, -1.000000)" id="color">
                            <rect x="0" y="0" width="18" height="18"></rect>
                        </g>
                    </g>
                </g>
            </g>
        </g>
    </g>
</svg>