<?xml version="1.0" encoding="UTF-8"?>
<svg width="14px" height="13px" viewBox="0 0 14 13" version="1.1" xmlns="http://www.w3.org/2000/svg" xmlns:xlink="http://www.w3.org/1999/xlink">
    <!-- Generator: sketchtool 52.6 (67491) - http://www.bohemiancoding.com/sketch -->
    <title>52CA2B2B-C56B-4B67-9923-920BC85F86F5</title>
    <desc>Created with sketchtool.</desc>
    <defs>
        <path d="M4.97777751,0 C4.55496197,0 4.19999976,0.354962199 4.19999976,0.777777728 L4.19999976,1.55555546 L1.55555542,1.55555546 C0.701851084,1.55555546 0,2.25740341 0,3.11111091 L0,9.95555803 C0,10.8092624 0.701851084,11.5111135 1.55555542,11.5111135 L12.4444445,11.5111135 C13.2981489,11.5111135 14,10.8092624 14,9.95555803 L14,3.11111091 C14,2.25740341 13.2981489,1.55555546 12.4444445,1.55555546 L9.7999997,1.55555546 L9.7999997,0.777777728 C9.7999997,0.354962199 9.44503749,1.76846181e-14 9.02222195,1.76846181e-14 L4.97777751,0 Z M5.13333289,0.933333278 L8.866666,0.933333278 L8.866666,1.55555546 L5.13333289,1.55555546 L5.13333289,0.933333278 Z M1.74191399,2.4888887 L2.74633307,2.48888856 L2.74633307,10.5777801 L1.74191399,10.5777801 C1.28346889,10.5777801 0.933333185,10.3083424 0.933333185,9.95555794 L0.933333185,3.11111088 C0.933333185,2.7583249 1.28346889,2.48866003 1.74191399,2.4888887 Z M3.68200016,2.48888874 L10.3179998,2.48888874 L10.3179998,10.5777803 L3.68200016,10.5777803 L3.68200016,2.48888874 Z M11.2489995,2.48888874 L12.2534098,2.48888874 C12.7118599,2.48888874 13.0619994,2.75832495 13.0619994,3.11111093 L13.0619994,9.95555811 C13.0619994,10.3083425 12.7118599,10.5777803 12.2534098,10.5777803 L11.2489995,10.5777803 L11.2489995,2.48888874 Z" id="path-1"></path>
    </defs>
    <g id="Page-1" stroke="none" stroke-width="1" fill="none" fill-rule="evenodd" opacity="0.570498512">
        <g id="hashtag-influencer_00_" transform="translate(-1170.000000, -158.000000)">
            <g id="#influencer" transform="translate(1087.000000, 110.000000)">
                <g id="top-bar" transform="translate(-313.000000, -1.000000)">
                    <g id="icons/icon-briefcase" transform="translate(396.000000, 49.000000)">
                        <g id="icon-google-drive" transform="translate(0.000000, 0.777778)">
                            <mask id="mask-2" fill="white">
                                <use xlink:href="#path-1"></use>
                            </mask>
                            <g id="Mask" fill-rule="nonzero"></g>
                            <g id="mixin/icon-fill/black" mask="url(#mask-2)" fill="#FFFFFF">
                                <g transform="translate(0.000000, -0.777778)" id="color">
                                    <rect x="0" y="0" width="14" height="14"></rect>
                                </g>
                            </g>
                        </g>
                    </g>
                </g>
            </g>
        </g>
    </g>
</svg>