<?xml version="1.0" encoding="UTF-8"?>
<svg width="20px" height="18px" viewBox="0 0 20 18" version="1.1" xmlns="http://www.w3.org/2000/svg" xmlns:xlink="http://www.w3.org/1999/xlink">
    <!-- Generator: sketchtool 53.2 (72643) - https://sketchapp.com -->
    <title>4606FBCD-CEE7-4570-BD7A-C28C0E280C77</title>
    <desc>Created with sketchtool.</desc>
    <g id="#Influencer" stroke="none" stroke-width="1" fill="none" fill-rule="evenodd">
        <g id="hashtag-influencer_12_favorites-alt-copy" transform="translate(-171.000000, -270.000000)" fill="#FFFFFF" fill-rule="nonzero">
            <g id="icon-hashtag" transform="translate(171.000000, 270.000000)">
                <path d="M18.4031829,4.3965526 L14.8201136,4.3965526 L15.4518245,0.997647027 C15.5541302,0.446622241 15.1664454,0 14.5855643,0 C14.0051139,0 13.4513708,0.446622241 13.3488497,0.997647027 L12.7169234,4.3965526 L8.12113516,4.3965526 L8.75284604,0.997647027 C8.85536714,0.446622241 8.46768232,0 7.88680122,0 C7.30635088,0 6.75217696,0.446622241 6.65008662,0.997647027 L6.01794497,4.3965526 L2.43466027,4.3965526 C1.85399455,4.3965526 1.30003601,4.84337916 1.19751491,5.39419963 C1.0952092,5.94502011 1.48289402,6.39164235 2.06355974,6.39164235 L5.64684444,6.39164235 L4.83636777,10.7512148 L1.25351383,10.7512148 C0.672632735,10.7512148 0.118674194,11.1980413 0.0163684758,11.7488618 C-0.0859372423,12.2996823 0.301962965,12.7465088 0.882628683,12.7465088 L4.465698,12.7465088 L3.83377174,16.1452101 C3.73146602,16.6962349 4.11915084,17.1428571 4.69981656,17.1428571 C5.2802669,17.1428571 5.8346562,16.6962349 5.93696192,16.1452101 L6.56888819,12.7463045 L11.1646764,12.7463045 L10.5329655,16.1452101 C10.4304444,16.6962349 10.8181293,17.1428571 11.3990104,17.1428571 C11.9796761,17.1428571 12.53385,16.6962349 12.6359403,16.1452101 L13.2678666,12.7463045 L16.8511513,12.7463045 C17.431817,12.7463045 17.9857756,12.299478 18.0880813,11.7486575 C18.190387,11.197837 17.8027022,10.7510105 17.2220365,10.7510105 L13.6387518,10.7510105 L14.449013,6.39143804 L18.0325131,6.39143804 C18.6129635,6.39143804 19.1671374,5.9448158 19.2692277,5.39399532 C19.3719642,4.84317485 18.9838486,4.3965526 18.4031829,4.3965526 Z M11.5355616,10.7512148 L6.93955796,10.7512148 L7.75025001,6.39164235 L12.3458229,6.39164235 L11.5355616,10.7512148 Z" id="Shape"></path>
            </g>
        </g>
    </g>
</svg>