<?xml version="1.0" encoding="UTF-8"?>
<svg width="13px" height="20px" viewBox="0 0 13 20" version="1.1" xmlns="http://www.w3.org/2000/svg" xmlns:xlink="http://www.w3.org/1999/xlink">
    <!-- Generator: sketchtool 53.2 (72643) - https://sketchapp.com -->
    <title>3C48FE00-05F5-45D3-80AE-3B39E5A292EB</title>
    <desc>Created with sketchtool.</desc>
    <g id="#Influencer" stroke="none" stroke-width="1" fill="none" fill-rule="evenodd">
        <g id="hashtag-influencer_12_favorites-alt-copy" transform="translate(-343.000000, -227.000000)" fill="#FFFFFF" fill-rule="nonzero">
            <g id="icon-location" transform="translate(343.000000, 227.000000)">
                <g id="Group">
                    <path d="M6.47058824,0.0842423529 C2.90226633,0.0842423529 0,3.14481176 0,6.90776941 C0,8.31198118 0.540903245,10.0503765 1.17837221,11.1504235 L6.08709432,19.6209882 C6.16756349,19.7635479 6.31326526,19.8508982 6.47058824,19.8508982 C6.62791121,19.8508982 6.77361298,19.7635479 6.85408215,19.6209882 L11.7628043,11.1504235 C12.4002844,10.0503765 12.9411765,8.31198118 12.9411765,6.90776941 C12.9411765,3.14481176 10.0389124,0.0842423529 6.47058824,0.0842423529 Z M6.47058824,1.02541882 C9.55657241,1.02541882 12.0486815,3.65346118 12.0486815,6.90776941 C12.0486815,8.03264 11.5218686,9.75 10.9958164,10.6577647 L6.47058824,18.4665882 L1.94536004,10.6577647 C1.41931907,9.75002353 0.892494929,8.03264 0.892494929,6.90776941 C0.892494929,3.65346118 3.38460629,1.02541882 6.47058824,1.02541882 Z M6.47058824,3.37836 C4.62745233,3.37836 3.12373225,4.96412471 3.12373225,6.90776941 C3.12373225,8.85144 4.6274568,10.4371765 6.47058824,10.4371765 C8.31372191,10.4371765 9.81744422,8.85144 9.81744422,6.90776941 C9.81744422,4.96412706 8.31372637,3.37836 6.47058824,3.37836 Z M6.47058824,4.31953647 C7.83137748,4.31953647 8.92494929,5.47278118 8.92494929,6.90776941 C8.92494929,8.34278118 7.83138195,9.496 6.47058824,9.496 C5.10979675,9.496 4.01622718,8.34278118 4.01622718,6.90776941 C4.01622718,5.47278353 5.10980122,4.31953647 6.47058824,4.31953647 Z" id="Shape"></path>
                </g>
            </g>
        </g>
    </g>
</svg>