<?xml version="1.0" encoding="UTF-8"?>
<svg width="14px" height="14px" viewBox="0 0 14 14" version="1.1" xmlns="http://www.w3.org/2000/svg" xmlns:xlink="http://www.w3.org/1999/xlink">
    <!-- Generator: sketchtool 53.2 (72643) - https://sketchapp.com -->
    <title>832D97C5-D211-4E3C-A62A-9CA4356D1884</title>
    <desc>Created with sketchtool.</desc>
    <defs>
        <path d="M8.52459043,6.61935949 L13.7596906,1.38090342 C13.96404,1.17655443 14.0438474,0.878709566 13.9690504,0.59956393 C13.8942534,0.320418059 13.676215,0.102380108 13.397068,0.0275830558 C13.1179208,-0.0472140591 12.8200743,0.0325935075 12.6158469,0.236820424 L7.00024227,5.85602497 L6.61937062,5.47539887 L1.38090388,0.240309376 C1.06500651,-0.0755873397 0.552835239,-0.0755873359 0.236937875,0.240309384 C-0.0789588831,0.556205499 -0.0789588869,1.06837384 0.236815453,1.38414759 L5.85603299,6.99974237 L5.47540456,7.38061479 L0.2403044,12.6190709 C0.0359549963,12.8234199 -0.0438524617,13.1212647 0.030944538,13.4004104 C0.1057416,13.6795562 0.323779998,13.8975942 0.602926969,13.9723912 C0.882074174,14.0471884 1.17992068,13.9673808 1.38414805,13.7631539 L6.99975272,8.14394932 L7.38062437,8.52457542 L12.6190911,13.7596649 C12.8234409,13.9640142 13.1212874,14.0438218 13.4004346,13.9690247 C13.6795815,13.8942277 13.8976199,13.6761897 13.972417,13.3970438 C14.047214,13.1178982 13.9674065,12.8200533 13.7631795,12.6158267 L8.143962,7.00023192 L8.52459043,6.61935949 Z" id="path-1"></path>
    </defs>
    <g id="Page-1" stroke="none" stroke-width="1" fill="none" fill-rule="evenodd">
        <g id="hashtag-influencer_07_" transform="translate(-950.000000, -243.000000)">
            <g id="mentions" transform="translate(81.000000, 229.000000)">
                <g id="icons/icon-close" transform="translate(867.000000, 12.000000)">
                    <g id="icon-close" transform="translate(2.000000, 2.000000)">
                        <mask id="mask-2" fill="white">
                            <use xlink:href="#path-1"></use>
                        </mask>
                        <g id="Mask" fill-rule="nonzero"></g>
                        <g id="mixin/icon-fill/black" mask="url(#mask-2)" fill="#000000">
                            <g transform="translate(-2.000000, -2.000000)" id="color">
                                <rect x="0" y="0" width="18" height="18"></rect>
                            </g>
                        </g>
                    </g>
                </g>
            </g>
        </g>
    </g>
</svg>