<?xml version="1.0" encoding="UTF-8"?>
<svg width="20px" height="14px" viewBox="0 0 20 14" version="1.1" xmlns="http://www.w3.org/2000/svg" xmlns:xlink="http://www.w3.org/1999/xlink">
    <!-- Generator: sketchtool 53.2 (72643) - https://sketchapp.com -->
    <title>0380A5F2-4E72-4964-8E98-FB63BBE39003</title>
    <desc>Created with sketchtool.</desc>
    <g id="#Influencer" stroke="none" stroke-width="1" fill="none" fill-rule="evenodd">
        <g id="hashtag-influencer_12_favorites-alt-copy" transform="translate(-213.000000, -231.000000)" fill="#FFFFFF" fill-rule="nonzero">
            <g id="icon-partnership" transform="translate(213.000000, 231.000000)">
                <path d="M19.9999918,3.64734509 C19.9995373,3.34372255 19.9102232,3.03578203 19.7127321,2.78192995 L18.1280316,0.754294994 C17.8625891,0.417264884 17.4587439,0.245681787 17.0551259,0.245 C16.8149095,0.245 16.5703752,0.306588105 16.3542487,0.441354697 L14.8090918,1.40267456 C14.6465992,1.50630621 14.3679755,1.57743934 14.0988968,1.57562124 C13.8898154,1.57653029 13.6877792,1.53471401 13.5543762,1.46880792 L12.0412632,0.735886741 C11.7971834,0.618392091 11.5251504,0.570212466 11.2515265,0.569757941 C10.8585898,0.57157604 10.4606534,0.668162552 10.1408952,0.889743373 L9.96431235,1.01360137 C9.82318241,0.943150032 9.60751041,0.835882189 9.36320335,0.714296815 C9.07026214,0.570666991 8.72573237,0.512715084 8.37779367,0.511578772 C8.0634898,0.512487822 7.74918593,0.560894708 7.4732894,0.67748031 L6.4426545,1.11723302 C6.27493487,1.18995698 6.00812883,1.23745481 5.7431409,1.2363185 C5.47815296,1.23745481 5.21180145,1.18995698 5.04408182,1.11723302 L4.01253787,0.677253047 C3.82436462,0.597029427 3.62323741,0.562712808 3.42392831,0.562485545 C3.1943933,0.562712808 2.96622187,0.607938021 2.75418607,0.693843201 C2.54237753,0.780202905 2.34579557,0.907697101 2.18921179,1.08268913 L0.311115485,3.18600246 C0.102943144,3.41849188 -0.000461238531,3.71120582 -6.71377067e-06,3.99937452 C-0.000461238531,4.34299524 0.146577521,4.68775227 0.430200972,4.92933218 L2.18216666,6.42403686 L1.35106814,7.29104284 C1.12198766,7.53012286 1.00790194,7.84010875 1.00790194,8.1466857 C1.00744742,8.47280721 1.13698697,8.8021104 1.3935662,9.04459936 L1.56219489,9.20481934 C1.72105129,9.3554943 1.91195169,9.45139902 2.11171532,9.50253306 C2.01149261,9.68684285 1.95672238,9.8888791 1.9571769,10.0913699 C1.95672238,10.4177187 2.08626194,10.7467946 2.34238664,10.9895108 L2.34193211,10.9892835 L2.51101533,11.1501853 C2.75168619,11.3783567 3.06371743,11.4919879 3.37120343,11.4917607 C3.53642318,11.4919879 3.7018702,11.4588076 3.85731767,11.3938106 C3.91186064,11.6151641 4.02458278,11.8256091 4.20184743,11.9937833 L4.37093064,12.154685 C4.61160151,12.3828565 4.92317823,12.4964877 5.23111875,12.4962604 C5.47178961,12.4964877 5.71359679,12.4255818 5.92176913,12.2878608 C5.98267545,12.483761 6.08698888,12.6694343 6.24584528,12.8203365 L6.41492849,12.9812383 C6.65514483,13.2094097 6.96717608,13.3230409 7.27466208,13.3228137 C7.60214717,13.3230409 7.93281393,13.1944104 8.17712099,12.939422 L8.911633,12.1724115 L9.90954211,13.0960058 C10.1483949,13.3175866 10.4549718,13.4278089 10.7576853,13.4271271 C11.0901702,13.4278089 11.4256095,13.2946331 11.670371,13.0325996 L11.829682,12.8619256 C11.9671757,12.714205 12.0569443,12.5394402 12.1089874,12.3569486 L12.4955607,12.7137505 C12.734868,12.9344223 13.0409904,13.04419 13.3432494,13.0439627 C13.6761888,13.04419 14.0125371,12.9110142 14.257526,12.6487534 L14.4159279,12.4783067 C14.5988741,12.282861 14.7018239,12.0408266 14.7336407,11.7935651 C14.8356815,11.8197003 14.9390858,11.8374268 15.0433993,11.8374268 C15.3763387,11.8374268 15.7117779,11.7044783 15.9569941,11.4424447 L16.1158505,11.271998 C16.3378858,11.0340542 16.4483353,10.7288409 16.4478808,10.4279455 C16.4478808,10.3345406 16.4344723,10.2415903 16.4137914,10.1497763 C16.6899152,10.1131871 16.9576303,9.99001086 17.1612574,9.77138445 L17.3205683,9.60071041 C17.5426037,9.36276669 17.6525987,9.05755332 17.6525987,8.75643066 C17.6530532,8.42508211 17.5194229,8.09077915 17.2557986,7.84715388 L16.9578576,7.57193914 L19.6468261,4.59889268 C19.8881787,4.3311776 19.9995373,3.98664783 19.9999918,3.64734509 Z M1.86286302,8.55507619 C1.74605015,8.44462668 1.68832551,8.29758792 1.68787098,8.1466857 C1.68832551,8.00510123 1.73900502,7.86692571 1.84331845,7.75806703 L3.54551368,5.98178426 C3.65641772,5.86610771 3.80436553,5.80815581 3.9561768,5.80792854 C4.09821579,5.80815581 4.2370731,5.85928984 4.34684083,5.96269422 L4.51501499,6.12314146 C4.51501499,6.12314146 4.68909798,6.38062974 4.6895525,6.53175922 C4.68909798,6.64493589 4.65500862,6.75515814 4.58887527,6.85060834 C4.58319371,6.8562899 2.75168619,8.76506663 2.75168619,8.76506663 C2.65441789,8.83392714 2.53942312,8.86938007 2.422383,8.86983459 C2.27988948,8.86938007 2.14057765,8.81847329 2.03171897,8.71529617 L1.86286302,8.55507619 Z M3.37165796,10.8149733 C3.22916445,10.814746 3.09030713,10.763612 2.98099393,10.6604349 L2.81191072,10.4997604 L2.81145619,10.4995331 C2.69555238,10.3895381 2.63737321,10.2420448 2.63737321,10.0911426 C2.63737321,9.94955816 2.68850724,9.81138263 2.79236615,9.70252395 C2.79236615,9.70252395 5.06135376,7.34058603 5.0804438,7.3178598 C5.18884795,7.21354636 5.32861432,7.15968518 5.47292593,7.15945792 C5.61541944,7.15968518 5.75427675,7.21059195 5.86358996,7.31399634 L6.03267317,7.4748981 L6.03267317,7.4748981 C6.14903151,7.58489309 6.20675615,7.73215912 6.20721068,7.8832886 C6.20675615,8.02487306 6.15562212,8.16327585 6.05176321,8.27213453 L3.78186656,10.6415721 C3.67118978,10.7567941 3.52346923,10.8145188 3.37165796,10.8149733 Z M5.23157328,11.819473 C5.08907977,11.8192458 4.95022245,11.7681117 4.84090925,11.6647073 L4.67137151,11.5040328 C4.55501317,11.3938106 4.496834,11.2465446 4.496834,11.0956423 C4.496834,10.9692845 4.53978659,10.84679 4.62205557,10.7447492 L6.2022109,9.09550613 C6.30879696,8.99937415 6.44242724,8.94869464 6.58083003,8.94869464 C6.72332354,8.9489219 6.86218086,8.99982867 6.97149406,9.10323306 L7.1410318,9.26413482 L7.1410318,9.26413482 C7.25693561,9.37412981 7.31511478,9.52139584 7.31556931,9.67229806 C7.31511478,9.81410978 7.26352622,9.95251257 7.16012184,10.061144 L5.64155461,11.6458446 C5.5311051,11.7612939 5.38338455,11.8190185 5.23157328,11.819473 Z M7.68509794,12.4723978 C7.57464842,12.5878471 7.42670061,12.6455718 7.27488934,12.6460263 C7.13239583,12.645799 6.99353851,12.594665 6.88422531,12.4912606 L6.7151421,12.3305861 C6.59923828,12.2205911 6.54105911,12.0730978 6.54060459,11.9221956 C6.54105911,11.7803839 6.59219315,11.6419811 6.69605206,11.5335769 L7.65441751,10.5329407 C7.76532156,10.4174914 7.91326937,10.3595395 8.06508064,10.3593122 C8.20711962,10.3595395 8.34643146,10.4104463 8.45574467,10.5140779 L8.6252824,10.6747524 L8.6252824,10.6747524 C8.74118622,10.7847474 8.79891086,10.9320134 8.79936539,11.0829156 C8.79891086,11.2247274 8.74777683,11.3631302 8.64391792,11.4717616 L7.68509794,12.4723978 Z M16.8226365,9.14050409 L16.6637801,9.31095087 C16.552876,9.42958183 16.4024283,9.4895791 16.2483444,9.48980636 C16.1085781,9.4895791 15.9717661,9.44049043 15.8631347,9.34004046 L13.1859838,6.86424409 L12.7230504,7.35990334 L15.5886017,10.0145552 C15.7079145,10.1250047 15.7679118,10.2749979 15.7688208,10.4281727 C15.7679118,10.5677118 15.7185958,10.7036147 15.6179186,10.8117916 L15.4595167,10.9822384 C15.3486127,11.1008694 15.198165,11.1606394 15.0440811,11.1610939 C14.9043147,11.1606394 14.7670482,11.1113234 14.6593259,11.0115553 L11.9814932,8.53575889 L11.5190143,9.03141814 L13.895497,11.2290454 C14.0100372,11.3388131 14.0686709,11.4849428 14.0686709,11.634936 C14.0686709,11.7740205 14.019355,11.9101507 13.9186778,12.0181003 L13.7598214,12.1885471 C13.6493718,12.3071781 13.4984696,12.3671754 13.3439312,12.3676299 C13.2037103,12.3671754 13.0668984,12.3178594 12.9587215,12.2180912 L10.5870113,10.0284182 L10.5865567,10.0284182 L10.5861022,10.0279637 L10.1245323,10.524532 L10.1249868,10.5249865 L10.1249868,10.5249865 L10.1338501,10.5333952 L11.3217505,11.6297089 C11.426973,11.7378858 11.481516,11.8765159 11.4819705,12.0199184 C11.481516,12.1583212 11.4326546,12.2937696 11.3319774,12.4017192 L11.1731209,12.5723933 C11.0622169,12.6910243 10.9122237,12.750567 10.7585944,12.7510215 C10.618828,12.750567 10.482016,12.7014783 10.3738392,12.6012556 L9.33956806,11.6435719 C9.42956397,11.4669891 9.47978895,11.2754069 9.47978895,11.0831429 C9.48024348,10.7570214 9.35070392,10.4281727 9.09457922,10.1852292 L8.92504148,10.0243275 C8.68482515,9.79638332 8.37324842,9.68252486 8.06576242,9.68297939 C8.04189987,9.68297939 8.01781006,9.68843368 7.99440203,9.68979726 C7.99440203,9.6841157 7.99576561,9.67820688 7.99576561,9.67252532 C7.99622013,9.3464038 7.61055587,8.77415713 7.61055587,8.77415713 L7.44147266,8.61370989 C7.26170812,8.4432631 7.04239992,8.33690431 6.81422849,8.29417898 C6.86127181,8.16100323 6.88786151,8.02237318 6.88786151,7.88351586 C6.88786151,7.55739435 6.75877647,7.22831842 6.50265177,6.9856022 L6.33356856,6.82470043 C6.0928977,6.596529 5.78132098,6.48267055 5.47383498,6.48289781 C5.43792752,6.48289781 5.40247459,6.49017021 5.36679439,6.49335188 C5.35702211,6.18018432 5.23089149,5.86724402 4.98544812,5.63407282 L4.98544812,5.63384556 L4.81681943,5.47362558 C4.57614857,5.24522689 4.26457185,5.13136844 3.95708585,5.1315957 C3.62914624,5.13136844 3.298934,5.25999894 3.05462694,5.51498733 L2.65282705,5.93428643 L0.872908089,4.41617373 C0.744959369,4.30663326 0.68109864,4.15527651 0.680644115,3.99982905 C0.68109864,3.8696077 0.725414804,3.74211351 0.819955954,3.63620924 L2.69805226,1.53289591 C2.77259432,1.44926335 2.88281658,1.37358498 3.01190161,1.32108737 C3.14098664,1.26858976 3.28757088,1.23972744 3.42461009,1.2399547 C3.54392284,1.2399547 3.6559632,1.26154463 3.74550457,1.30017923 L4.77659399,1.7401592 C5.06726258,1.86265362 5.40474721,1.91287861 5.74382268,1.91401492 C6.08335268,1.91287861 6.42038279,1.86265362 6.71105137,1.7401592 L7.74168627,1.30040649 C7.90054267,1.23109147 8.14030448,1.18813888 8.37870272,1.18904793 C8.64232708,1.18745709 8.90640597,1.24200006 9.05958081,1.32017832 C9.15684911,1.36858521 9.24911764,1.41449221 9.33479555,1.4574448 L8.28370704,2.1962748 C7.94599515,2.43376398 7.76395798,2.81147406 7.76441251,3.19259307 C7.76395798,3.44485431 7.84395434,3.7016608 8.0066742,3.91960543 L8.00621968,3.9191509 L8.14507699,4.10573332 C8.40870135,4.45617191 8.819819,4.63639097 9.23070938,4.63730002 C9.46274427,4.63730002 9.69909715,4.57866633 9.90976938,4.45230844 L10.5383771,4.07482563 C10.6665531,3.99642011 10.8601806,3.94687691 11.0603988,3.94778596 C11.2956154,3.94642239 11.53265,4.01596467 11.6751435,4.12073263 L13.4141553,5.36749405 C13.8011831,5.64475415 14.431609,6.15904892 14.7809112,6.48267055 L16.7937741,8.34372218 C16.9130869,8.45439896 16.9730842,8.60371034 16.9735387,8.75711245 C16.9733114,8.89619703 16.923541,9.03232719 16.8226365,9.14050409 Z M19.1420763,4.14641328 L16.4606075,7.11150556 L15.2431629,5.98610225 C14.8618166,5.63407282 14.2329816,5.12068711 13.8111827,4.81774635 L12.0726254,3.57098493 C11.7778661,3.36213081 11.4169735,3.27190764 11.0601715,3.27054407 C10.756549,3.27145312 10.4506538,3.33758647 10.186575,3.49485204 L9.55842174,3.87233485 C9.46206249,3.93028676 9.3484313,3.95983087 9.23048212,3.96005813 C9.01958263,3.96073992 8.80845588,3.86233531 8.69073397,3.70211533 L8.55233118,3.51576018 L8.55187665,3.51530565 C8.47824364,3.41599199 8.44392702,3.30463342 8.4434725,3.19191128 C8.44438155,3.0214645 8.52301433,2.85601749 8.67528013,2.74852238 L10.5338319,1.44267274 C10.6945064,1.32631441 10.9804024,1.24472721 11.251981,1.24677257 C11.4406088,1.24586352 11.6208278,1.28381634 11.7442313,1.34472266 L13.2573442,2.07764383 C13.515287,2.20150183 13.8064101,2.25218134 14.0993514,2.25286313 C14.4756979,2.25104503 14.8561351,2.16923057 15.1695299,1.97673934 L16.7151414,1.01519221 C16.8137732,0.953604101 16.9321769,0.921787368 17.0555804,0.921787368 C17.2642073,0.921332844 17.4732887,1.01587399 17.5916924,1.17018515 L19.1763929,3.19782011 C19.2677524,3.31395118 19.3207045,3.47780736 19.3207045,3.64757236 C19.3209318,3.83756371 19.2538894,4.02437338 19.1420763,4.14641328 Z" id="Shape"></path>
            </g>
        </g>
    </g>
</svg>