<?xml version="1.0" encoding="UTF-8"?>
<svg width="20px" height="20px" viewBox="0 0 20 20" version="1.1" xmlns="http://www.w3.org/2000/svg" xmlns:xlink="http://www.w3.org/1999/xlink">
    <!-- Generator: sketchtool 53.2 (72643) - https://sketchapp.com -->
    <title>AA50EE5F-E2BB-44C8-8DAA-A5C4E978A134</title>
    <desc>Created with sketchtool.</desc>
    <g id="#Influencer" stroke="none" stroke-width="1" fill="none" fill-rule="evenodd">
        <g id="hashtag-influencer_12_favorites-alt-copy" transform="translate(-129.000000, -228.000000)" fill="#FFFFFF" fill-rule="nonzero">
            <g id="icon-at" transform="translate(129.000000, 228.000000)">
                <path d="M10.3133333,-5.86197757e-14 C12.3666769,-5.5659181e-14 14.101104,0.40055155 15.5166667,1.20166667 C16.9322293,2.00278178 17.9977742,3.10332633 18.7133333,4.50333333 C19.4288925,5.90334033 19.7866667,7.51332423 19.7866667,9.33333333 C19.7866667,10.6088953 19.596113,11.7094398 19.215,12.635 C18.833887,13.5605602 18.3050034,14.264442 17.6283333,14.7466667 C16.9516633,15.2288913 16.1777821,15.47 15.3066667,15.47 C14.5133294,15.47 13.8833357,15.2755575 13.4166667,14.8866667 C12.9499977,14.4977758 12.6233343,14.000003 12.4366667,13.3933333 C12.0166646,14.0311143 11.4722256,14.5211094 10.8033333,14.8633333 C10.1344411,15.2055573 9.3566711,15.3766667 8.47,15.3766667 C7.7233296,15.3766667 7.0544474,15.186113 6.46333333,14.805 C5.87221927,14.423887 5.40555727,13.8872257 5.06333333,13.195 C4.7211094,12.5027743 4.55,11.6900047 4.55,10.7566667 C4.55,9.4655491 4.80277525,8.34944915 5.30833333,7.40833333 C5.81389142,6.46721752 6.47499592,5.75166912 7.29166667,5.26166667 C8.10833742,4.77166422 8.99110637,4.52666667 9.94,4.52666667 C11.6044528,4.52666667 12.6855531,5.17999347 13.1833333,6.48666667 L13.65,4.69 L15.3533333,4.69 L14.3966667,11.7833333 C14.3655554,12.0633347 14.35,12.2655549 14.35,12.39 C14.35,13.4477831 14.8244397,13.9766667 15.7733333,13.9766667 C16.551115,13.9766667 17.1538867,13.5838928 17.5816667,12.7983333 C18.0094466,12.0127738 18.2233333,10.8577854 18.2233333,9.33333333 C18.2233333,7.74665873 17.920003,6.36611698 17.3133333,5.19166667 C16.7066636,4.01721635 15.8122281,3.10722545 14.63,2.46166667 C13.4477719,1.81610788 12.0088974,1.49333333 10.3133333,1.49333333 C8.55554677,1.49333333 7.02722872,1.84721868 5.72833333,2.555 C4.42943795,3.26278132 3.4300035,4.26999347 2.73,5.57666667 C2.0299965,6.88333987 1.68,8.42332447 1.68,10.1966667 C1.68,11.8611194 2.03388535,13.3155493 2.74166667,14.56 C3.44944798,15.8044507 4.40999393,16.7533301 5.62333333,17.4066667 C6.83667273,18.0600033 8.18999253,18.3866667 9.68333333,18.3866667 C10.8811171,18.3866667 11.841663,18.2622235 12.565,18.0133333 C13.2883369,17.7644432 13.9766634,17.406669 14.63,16.94 L15.4933333,18.1066667 C14.6688848,18.6822251 13.832782,19.1216651 12.985,19.425 C12.137218,19.7283348 11.0288957,19.88 9.66,19.88 C7.76221273,19.88 6.08222953,19.4833373 4.62,18.69 C3.15777047,17.8966627 2.02222627,16.7688962 1.21333333,15.3066667 C0.4044404,13.8444371 -3.05533376e-13,12.1411208 -3.05533376e-13,10.1966667 C-3.05533376e-13,8.18998997 0.4277735,6.41667437 1.28333333,4.87666667 C2.13889317,3.33665897 3.34832552,2.13889317 4.91166667,1.28333333 C6.47500782,0.4277735 8.27554537,-5.5659181e-14 10.3133333,-5.86197757e-14 Z M10.1966667,6.27666667 C9.15443923,6.27666667 8.31833648,6.65388512 7.68833333,7.40833333 C7.05833018,8.16278155 6.74333333,9.2088822 6.74333333,10.5466667 C6.74333333,11.5111159 6.96110893,12.261664 7.39666667,12.7983333 C7.8322244,13.3350027 8.4466627,13.6033333 9.24,13.6033333 C10.0333373,13.6033333 10.7333303,13.3505581 11.34,12.845 C11.9466697,12.3394419 12.3044439,11.6200047 12.4133333,10.6866667 L12.6,9.31 C12.6311113,9.0299986 12.6466667,8.8200007 12.6466667,8.68 C12.6466667,7.9333296 12.4483353,7.34611325 12.0516667,6.91833333 C11.654998,6.49055342 11.0366709,6.27666667 10.1966667,6.27666667 Z" id="@"></path>
            </g>
        </g>
    </g>
</svg>