<?xml version="1.0" encoding="UTF-8"?>
<svg width="20px" height="20px" viewBox="0 0 20 20" version="1.1" xmlns="http://www.w3.org/2000/svg" xmlns:xlink="http://www.w3.org/1999/xlink">
    <!-- Generator: sketchtool 53.2 (72643) - https://sketchapp.com -->
    <title>86F7D076-A4A6-40D9-B3AD-FAD7D2E9AB39</title>
    <desc>Created with sketchtool.</desc>
    <g id="#Influencer" stroke="none" stroke-width="1" fill="none" fill-rule="evenodd">
        <g id="hashtag-influencer_12_favorites-alt-copy" transform="translate(-171.000000, -227.000000)" fill="#FFFFFF" fill-rule="nonzero">
            <g id="icon-account" transform="translate(171.000000, 227.000000)">
                <g id="Group">
                    <path d="M10.0244499,2.6405868 C11.8826406,2.6405868 13.4474328,4.15647922 13.4474328,6.06356968 C13.4474328,7.92176039 11.8826406,9.48655257 10.0244499,9.48655257 C8.11735941,9.48655257 6.55256724,7.92176039 6.55256724,6.06356968 C6.55256724,4.15647922 8.11735941,2.6405868 10.0244499,2.6405868 Z M10.0244499,3.56968215 C8.60635697,3.56968215 7.48166259,4.64547677 7.48166259,6.06356968 C7.48166259,7.43276284 8.60635697,8.55745721 10.0244499,8.55745721 C11.393643,8.55745721 12.5183374,7.43276284 12.5183374,6.06356968 C12.5183374,4.64547677 11.393643,3.56968215 10.0244499,3.56968215 Z" id="Shape"></path>
                    <path d="M10.0244499,0 C15.5012225,0 20,4.49877751 20,10.0244499 C20,15.5012225 15.5012225,20 10.0244499,20 C4.49877751,20 0,15.5012225 0,10.0244499 C0,4.49877751 4.49877751,0 10.0244499,0 Z M10.0244499,10.5623472 C13.3496333,10.5623472 16.0880196,13.1540342 16.3814181,16.4303178 C18.0440098,14.7677262 19.0709046,12.5183374 19.0709046,10.0244499 C19.0709046,4.98777506 15.0122249,0.929095355 10.0244499,0.929095355 C4.98777506,0.929095355 0.929095355,4.98777506 0.929095355,10.0244499 C0.929095355,12.5183374 1.95599022,14.7677262 3.61858191,16.4303178 C3.91198044,13.1540342 6.65036675,10.5623472 10.0244499,10.5623472 Z M15.4523227,17.2127139 C15.599022,14.0831296 13.1540342,11.4914425 10.0244499,11.4914425 C6.84596577,11.4914425 4.400978,14.0831296 4.54767726,17.2127139 C6.06356968,18.3863081 7.97066015,19.0709046 10.0244499,19.0709046 C12.0293399,19.0709046 13.9364303,18.3863081 15.4523227,17.2127139 Z" id="Shape"></path>
                </g>
            </g>
        </g>
    </g>
</svg>