<?xml version="1.0" encoding="UTF-8"?>
<svg width="20px" height="16px" viewBox="0 0 20 16" version="1.1" xmlns="http://www.w3.org/2000/svg" xmlns:xlink="http://www.w3.org/1999/xlink">
    <!-- Generator: sketchtool 53.2 (72643) - https://sketchapp.com -->
    <title>391022D9-6583-4236-B56B-461646420EF1</title>
    <desc>Created with sketchtool.</desc>
    <g id="#Influencer" stroke="none" stroke-width="1" fill="none" fill-rule="evenodd">
        <g id="hashtag-influencer_12_favorites-alt-copy" transform="translate(-87.000000, -271.000000)" fill="#FFFFFF" fill-rule="nonzero">
            <g id="icon-image" transform="translate(87.000000, 271.000000)">
                <path d="M3.49999975,3.73034936e-14 C1.569675,3.73034936e-14 -7.46069873e-14,1.6174534 -7.46069873e-14,3.60654707 L-7.46069873e-14,11.8501042 C-7.46069873e-14,13.8392237 1.569675,15.4566874 3.49999975,15.4566874 L16.4999997,15.4566874 C18.430325,15.4566874 19.9999987,13.8392237 19.9999987,11.8501042 L19.9999987,3.60654707 C19.9999987,1.6174534 18.430325,3.73034936e-14 16.4999997,3.73034936e-14 L3.49999975,3.73034936e-14 Z M3.49999975,1.03043466 L16.4999998,1.03043466 C17.8936248,1.03043466 18.9999987,2.17049321 18.9999987,3.60654707 L18.9999987,11.8501042 C18.9999987,13.2861838 17.8936248,14.4262424 16.4999998,14.4262424 L3.49999975,14.4262424 C2.10637475,14.4262424 1,13.2861838 1,11.8501042 L1,3.60654707 C1,2.17049321 2.10637475,1.03043466 3.49999975,1.03043466 Z" id="Shape-Copy-3"></path>
                <path d="M17.7682624,0.693588752 C17.9407892,0.957714265 18.9005111,2.03735512 19.2628362,2.33149839 C19.1449995,1.55743417 18.5834379,0.929215038 17.8457734,0.714463262 L2.14285714,0.959684006 C2.00221711,0.959684006 1,1.9941875 1,2.14285714 L0.714285714,10.3538447 L6.35100446,6.2434405 C6.44500677,6.17296457 6.555793,6.12772294 6.67020089,6.11307266 C6.85292889,6.09207638 7.04274305,6.15142596 7.18526786,6.27411529 L11.6540179,10.10079 L14.9475446,7.70815665 C15.1926527,7.53372754 15.544832,7.55007107 15.7745536,7.7465124 L19.2857143,10.7142857 L19.2857143,12.6648352 L15.3030134,9.31470085 L12.0167411,11.6956532 C11.771633,11.8692308 11.4194537,11.8529915 11.1897321,11.6575092 L6.72098214,7.85714286 L0.714285714,12.2145788 L1.42857143,14.2857143 C1.42857143,14.4336508 2.00221711,14.7557998 2.14285714,14.7557998 L12.7543065,14.9207018 L2.71428571,14.9207018 C1.60971621,14.9207018 0.714285714,14.0252713 0.714285714,12.9207018 L0.714285714,2.63498756 C0.714285714,1.53041806 1.60971621,0.634987558 2.71428571,0.634987558 L17.2857143,0.634987558 C17.4520904,0.634987558 17.6137215,0.655303063 17.7682624,0.693588752 Z M19.2002925,13.500792 C18.9267919,13.4279323 18.3716086,14.3244091 18.0619845,14.7644693 C18.6060874,14.5351105 19.0274751,14.0719331 19.2002925,13.500792 Z M12.2360248,2.46447525 C13.3088575,2.46447525 14.1925466,3.3641668 14.1925466,4.45642696 C14.1925466,5.54868712 13.3088575,6.44837867 12.2360248,6.44837867 C11.1631918,6.44837867 10.2795031,5.54868712 10.2795031,4.45642696 C10.2795031,3.3641668 11.1631918,2.46447525 12.2360248,2.46447525 Z M12.2360248,3.79244306 C11.868114,3.79244306 11.5838509,4.08185372 11.5838509,4.45642696 C11.5838509,4.8310002 11.868114,5.12041087 12.2360248,5.12041087 C12.6039357,5.12041087 12.8881988,4.8310002 12.8881988,4.45642696 C12.8881988,4.08185372 12.6039357,3.79244306 12.2360248,3.79244306 Z" id="Combined-Shape"></path>
            </g>
        </g>
    </g>
</svg>