<?xml version="1.0" encoding="UTF-8"?>
<svg width="39px" height="75px" viewBox="0 0 39 75" version="1.1" xmlns="http://www.w3.org/2000/svg" xmlns:xlink="http://www.w3.org/1999/xlink">
    <!-- Generator: sketchtool 53.2 (72643) - https://sketchapp.com -->
    <title>CABCEB75-81DC-4403-BBA4-81B7E56C4477@1x</title>
    <desc>Created with sketchtool.</desc>
    <g id="#Influencer" stroke="none" stroke-width="1" fill="none" fill-rule="evenodd">
        <g id="hashtag-influencer_05_" transform="translate(-1113.000000, -834.000000)" fill="#FFFFFF" fill-rule="nonzero">
            <g id="#influencer" transform="translate(1087.000000, 110.000000)">
                <g id="Group-6" transform="translate(-1.000000, 724.000000)">
                    <g id="double-arrows" transform="translate(27.000000, 0.000000)">
                        <path d="M19.5558721,63.9999835 C20.7611556,64.003234 21.9176087,63.5259205 22.7672533,62.6745207 L37.7249316,47.7777661 C39.4463238,46.0027366 39.4217055,43.1812384 37.6696004,41.4362698 C35.9174953,39.6913012 33.0844579,39.6667831 31.3021691,41.3811639 L19.5558721,53.0796174 L7.80957505,41.3811639 C6.6691283,40.2051817 4.98029867,39.7335521 3.39218917,40.1475463 C1.80407968,40.5615406 0.563837143,41.7967315 0.14814977,43.3783725 C-0.267537603,44.9600136 0.206020824,46.6419645 1.38681249,47.7777661 L16.3444908,62.6745207 C17.1941355,63.5259205 18.3505885,64.003234 19.5558721,63.9999835 Z M2.990232,42.9780526 C3.87710888,42.0950547 5.3147364,42.0950547 6.20161328,42.9780526 L19.5558721,56.2779185 L32.9101309,42.9780526 C33.8012753,42.1208622 35.217794,42.1331212 36.0938465,43.0056055 C36.9698991,43.8780898 36.9822082,45.2888389 36.1215121,46.1763537 L21.1638338,61.077632 C20.276957,61.9606299 18.8393294,61.9606299 17.9524526,61.077632 L2.990232,46.1763537 C2.10362291,45.2930891 2.10362291,43.8613171 2.990232,42.9780526 Z" id="Shape"></path>
                        <path d="M19.5558721,82.9999835 C20.7611556,83.003234 21.9176087,82.5259205 22.7672533,81.6745207 L37.7249316,66.7777661 C39.4463238,65.0027366 39.4217055,62.1812384 37.6696004,60.4362698 C35.9174953,58.6913012 33.0844579,58.6667831 31.3021691,60.3811639 L19.5558721,72.0796174 L7.80957505,60.3811639 C6.6691283,59.2051817 4.98029867,58.7335521 3.39218917,59.1475463 C1.80407968,59.5615406 0.563837143,60.7967315 0.14814977,62.3783725 C-0.267537603,63.9600136 0.206020824,65.6419645 1.38681249,66.7777661 L16.3444908,81.6745207 C17.1941355,82.5259205 18.3505885,83.003234 19.5558721,82.9999835 Z M2.990232,61.9780526 C3.87710888,61.0950547 5.3147364,61.0950547 6.20161328,61.9780526 L19.5558721,75.2779185 L32.9101309,61.9780526 C33.8012753,61.1208622 35.217794,61.1331212 36.0938465,62.0056055 C36.9698991,62.8780898 36.9822082,64.2888389 36.1215121,65.1763537 L21.1638338,80.077632 C20.276957,80.9606299 18.8393294,80.9606299 17.9524526,80.077632 L2.990232,65.1763537 C2.10362291,64.2930891 2.10362291,62.8613171 2.990232,61.9780526 Z" id="Shape-Copy" opacity="0.283272879"></path>
                        <path d="M19.5558721,43.9999835 C20.7611556,44.003234 21.9176087,43.5259205 22.7672533,42.6745207 L37.7249316,27.7777661 C39.4463238,26.0027366 39.4217055,23.1812384 37.6696004,21.4362698 C35.9174953,19.6913012 33.0844579,19.6667831 31.3021691,21.3811639 L19.5558721,33.0796174 L7.80957505,21.3811639 C6.6691283,20.2051817 4.98029867,19.7335521 3.39218917,20.1475463 C1.80407968,20.5615406 0.563837143,21.7967315 0.14814977,23.3783725 C-0.267537603,24.9600136 0.206020824,26.6419645 1.38681249,27.7777661 L16.3444908,42.6745207 C17.1941355,43.5259205 18.3505885,44.003234 19.5558721,43.9999835 Z M2.990232,22.9780526 C3.87710888,22.0950547 5.3147364,22.0950547 6.20161328,22.9780526 L19.5558721,36.2779185 L32.9101309,22.9780526 C33.8012753,22.1208622 35.217794,22.1331212 36.0938465,23.0056055 C36.9698991,23.8780898 36.9822082,25.2888389 36.1215121,26.1763537 L21.1638338,41.077632 C20.276957,41.9606299 18.8393294,41.9606299 17.9524526,41.077632 L2.990232,26.1808774 C2.56306968,25.7565291 2.32300152,25.1803442 2.32300152,24.579465 C2.32300152,23.9785858 2.56306968,23.4024009 2.990232,22.9780526 Z" id="Shape" opacity="0.235142299"></path>
                        <path d="M19.5558721,23.9999835 C20.7611556,24.003234 21.9176087,23.5259205 22.7672533,22.6745207 L37.7249316,7.77776609 C39.4463238,6.00273664 39.4217055,3.18123843 37.6696004,1.43626979 C35.9174953,-0.308698848 33.0844579,-0.333216904 31.3021691,1.3811639 L19.5558721,13.0796174 L7.80957505,1.3811639 C6.6691283,0.205181686 4.98029867,-0.266447903 3.39218917,0.147546346 C1.80407968,0.561540594 0.563837143,1.79673153 0.14814977,3.37837254 C-0.267537603,4.96001355 0.206020824,6.64196446 1.38681249,7.77776609 L16.3444908,22.6745207 C17.1941355,23.5259205 18.3505885,24.003234 19.5558721,23.9999835 Z M2.990232,2.97805257 C3.87710888,2.0950547 5.3147364,2.0950547 6.20161328,2.97805257 L19.5558721,16.2779185 L32.9101309,2.97805257 C33.8012753,2.12086216 35.217794,2.13312119 36.0938465,3.00560551 C36.9698991,3.87808983 36.9822082,5.28883893 36.1215121,6.17635366 L21.1638338,21.077632 C20.276957,21.9606299 18.8393294,21.9606299 17.9524526,21.077632 L2.990232,6.18087742 C2.56306968,5.75652908 2.32300152,5.18034417 2.32300152,4.579465 C2.32300152,3.97858583 2.56306968,3.40240091 2.990232,2.97805257 Z" id="Shape-Copy-2" opacity="0.0462704613"></path>
                    </g>
                </g>
            </g>
        </g>
    </g>
</svg>