<?xml version="1.0" encoding="UTF-8"?>
<svg width="68px" height="47px" viewBox="0 0 68 47" version="1.1" xmlns="http://www.w3.org/2000/svg" xmlns:xlink="http://www.w3.org/1999/xlink">
    <!-- Generator: sketchtool 53.2 (72643) - https://sketchapp.com -->
    <title>7D630E4C-4F4B-432E-9D32-7A57E7814250@1x</title>
    <desc>Created with sketchtool.</desc>
    <defs>
        <linearGradient x1="50%" y1="0%" x2="50%" y2="100%" id="linearGradient-1">
            <stop stop-color="#66CDCE" offset="0%"></stop>
            <stop stop-color="#6DEDE4" offset="100%"></stop>
        </linearGradient>
        <path d="M0.91,39 L2.45,39 L2.45,46 L0.91,46 L0.91,39 Z M4.2,39 L5.62,39 L8.9,43.31 L8.9,39 L10.42,39 L10.42,46 L9.11,46 L5.72,41.55 L5.72,46 L4.2,46 L4.2,39 Z M12.1,39 L17.43,39 L17.43,40.4 L13.64,40.4 L13.64,41.89 L16.98,41.89 L16.98,43.29 L13.64,43.29 L13.64,46 L12.1,46 L12.1,39 Z M18.66,39 L20.2,39 L20.2,44.6 L23.69,44.6 L23.69,46 L18.66,46 L18.66,39 Z M27.77,46.11 C26.8299953,46.11 26.0900027,45.8500026 25.55,45.33 C25.0099973,44.8099974 24.74,44.0333385 24.74,43 L24.74,39 L26.28,39 L26.28,42.96 C26.28,43.5333362 26.413332,43.9649986 26.68,44.255 C26.946668,44.5450015 27.3166643,44.69 27.79,44.69 C28.2633357,44.69 28.633332,44.5500014 28.9,44.27 C29.166668,43.9899986 29.3,43.5700028 29.3,43.01 L29.3,39 L30.84,39 L30.84,42.95 C30.84,43.483336 30.768334,43.9466647 30.625,44.34 C30.481666,44.7333353 30.276668,45.0616654 30.01,45.325 C29.743332,45.5883347 29.4200019,45.7849994 29.04,45.915 C28.6599981,46.0450007 28.236669,46.11 27.77,46.11 Z M32.41,39 L37.69,39 L37.69,40.37 L33.94,40.37 L33.94,41.79 L37.24,41.79 L37.24,43.16 L33.94,43.16 L33.94,44.63 L37.74,44.63 L37.74,46 L32.41,46 L32.41,39 Z M39.11,39 L40.53,39 L43.81,43.31 L43.81,39 L45.33,39 L45.33,46 L44.02,46 L40.63,41.55 L40.63,46 L39.11,46 L39.11,39 Z M50.29,46.12 C49.7766641,46.12 49.3000022,46.0266676 48.86,45.84 C48.4199978,45.6533324 48.0400016,45.398335 47.72,45.075 C47.3999984,44.7516651 47.1500009,44.3700022 46.97,43.93 C46.7899991,43.4899978 46.7,43.0200025 46.7,42.52 L46.7,42.5 C46.7,41.9999975 46.7899991,41.5316689 46.97,41.095 C47.1500009,40.6583312 47.3999984,40.2750017 47.72,39.945 C48.0400016,39.6149984 48.4233311,39.355001 48.87,39.165 C49.3166689,38.9749991 49.8099973,38.88 50.35,38.88 C50.6766683,38.88 50.9749987,38.9066664 51.245,38.96 C51.5150014,39.0133336 51.7599989,39.0866662 51.98,39.18 C52.2000011,39.2733338 52.4033324,39.386666 52.59,39.52 C52.7766676,39.653334 52.9499992,39.7999992 53.11,39.96 L52.13,41.09 C51.8566653,40.8433321 51.5783348,40.6500007 51.295,40.51 C51.0116653,40.3699993 50.6933351,40.3 50.34,40.3 C50.0466652,40.3 49.7750013,40.3566661 49.525,40.47 C49.2749987,40.5833339 49.0600009,40.739999 48.88,40.94 C48.6999991,41.140001 48.5600005,41.3716654 48.46,41.635 C48.3599995,41.8983347 48.31,42.1799985 48.31,42.48 L48.31,42.5 C48.31,42.8000015 48.3599995,43.083332 48.46,43.35 C48.5600005,43.616668 48.6983324,43.849999 48.875,44.05 C49.0516676,44.250001 49.2649988,44.4083328 49.515,44.525 C49.7650012,44.6416673 50.0399985,44.7 50.34,44.7 C50.740002,44.7 51.078332,44.6266674 51.355,44.48 C51.6316681,44.3333326 51.9066653,44.1333346 52.18,43.88 L53.16,44.87 C52.9799991,45.0633343 52.7933343,45.2366659 52.6,45.39 C52.4066657,45.5433341 52.1950011,45.6749995 51.965,45.785 C51.7349989,45.8950006 51.4833347,45.9783331 51.21,46.035 C50.9366653,46.091667 50.6300017,46.12 50.29,46.12 Z M54.39,39 L59.67,39 L59.67,40.37 L55.92,40.37 L55.92,41.79 L59.22,41.79 L59.22,43.16 L55.92,43.16 L55.92,44.63 L59.72,44.63 L59.72,46 L54.39,46 L54.39,39 Z M64.19,42.4 C64.5700019,42.4 64.8616657,42.3100009 65.065,42.13 C65.2683344,41.9499991 65.37,41.7100015 65.37,41.41 L65.37,41.39 C65.37,41.056665 65.2633344,40.8066675 65.05,40.64 C64.8366656,40.4733325 64.5400019,40.39 64.16,40.39 L62.63,40.39 L62.63,42.4 L64.19,42.4 Z M61.09,39 L64.29,39 C65.1766711,39 65.8566643,39.2366643 66.33,39.71 C66.730002,40.110002 66.93,40.64333 66.93,41.31 L66.93,41.33 C66.93,41.8966695 66.791668,42.3583316 66.515,42.715 C66.238332,43.0716685 65.8766689,43.3333325 65.43,43.5 L67.14,46 L65.34,46 L63.84,43.76 L62.63,43.76 L62.63,46 L61.09,46 L61.09,39 Z" id="path-2"></path>
        <linearGradient x1="50%" y1="0%" x2="50%" y2="100%" id="linearGradient-3">
            <stop stop-color="#66CDCE" offset="0%"></stop>
            <stop stop-color="#6DEDE4" offset="100%"></stop>
        </linearGradient>
    </defs>
    <g id="#Influencer" stroke="none" stroke-width="1" fill="none" fill-rule="evenodd">
        <g id="hashtag-influencer_07_" transform="translate(-1396.000000, -126.000000)" fill-rule="nonzero">
            <g id="#influencer-logo" transform="translate(1396.000000, 126.000000)">
                <g id="INFLUENCER">
                    <use fill="#FFFFFF" xlink:href="#path-2"></use>
                    <use fill="url(#linearGradient-1)" xlink:href="#path-2"></use>
                </g>
                <g id="#influencer-logo-mark" transform="translate(19.000000, 0.000000)" fill="url(#linearGradient-3)">
                    <path d="M22.9583333,0 C26.2950537,6.70829622e-16 29,2.7052281 29,6.04229607 L29,18.1268882 C29,19.7294048 28.3634691,21.2662864 27.2304368,22.3994367 C26.0974045,23.5325871 24.560683,24.1691843 22.9583333,24.1691843 L15.0648958,24.1691843 L11.8084375,28.0694864 C11.324779,28.6578352 10.6034569,28.9991415 9.841875,29 C9.53797856,28.9995554 9.23646167,28.9464011 8.95072917,28.8429003 C7.92833422,28.4799547 7.2464911,27.5109825 7.25,26.4259819 L7.25,24.1691843 L6.04166667,24.1691843 C2.7049463,24.1691843 -1.94520326e-15,21.4639562 0,18.1268882 L0,6.04229607 C4.02455846e-16,2.7052281 2.7049463,4.02497773e-16 6.04166667,0 L22.9583333,0 Z M26.5833333,18.1268882 L26.5833333,6.04229607 C26.5833333,4.04005529 24.9603656,2.41691843 22.9583333,2.41691843 L6.04166667,2.41691843 C4.03963445,2.41691843 2.41666667,4.04005529 2.41666667,6.04229607 L2.41666667,18.1268882 C2.41666667,20.129129 4.03963445,21.7522659 6.04166667,21.7522659 L8.4734375,21.7522659 C9.14078157,21.7522659 9.68177083,22.2933115 9.68177083,22.9607251 L9.68177083,26.4229607 C9.67481675,26.4932114 9.71945566,26.5582635 9.7875,26.5770393 C9.85220828,26.6082434 9.93002558,26.5861929 9.96875,26.5256798 L13.5726042,22.1873112 C13.8019421,21.9119424 14.1416595,21.7525795 14.5,21.7522659 L22.9583333,21.7522659 C24.9603656,21.7522659 26.5833333,20.129129 26.5833333,18.1268882 Z M19.8,10.8 L18.6,10.8 L18.6,13.2 L19.8,13.2 C20.4627417,13.2 21,13.7372583 21,14.4 C21,15.0627417 20.4627417,15.6 19.8,15.6 L18.6,15.6 L18.6,16.8 C18.6,17.4627417 18.0627417,18 17.4,18 C16.7372583,18 16.2,17.4627417 16.2,16.8 L16.2,15.6 L13.8,15.6 L13.8,16.8 C13.8,17.4627417 13.2627417,18 12.6,18 C11.9372583,18 11.4,17.4627417 11.4,16.8 L11.4,15.6 L10.2,15.6 C9.5372583,15.6 9,15.0627417 9,14.4 C9,13.7372583 9.5372583,13.2 10.2,13.2 L11.4,13.2 L11.4,10.8 L10.2,10.8 C9.5372583,10.8 9,10.2627417 9,9.6 C9,8.9372583 9.5372583,8.4 10.2,8.4 L11.4,8.4 L11.4,7.2 C11.4,6.5372583 11.9372583,6 12.6,6 C13.2627417,6 13.8,6.5372583 13.8,7.2 L13.8,8.4 L16.2,8.4 L16.2,7.2 C16.2,6.5372583 16.7372583,6 17.4,6 C18.0627417,6 18.6,6.5372583 18.6,7.2 L18.6,8.4 L19.8,8.4 C20.4627417,8.4 21,8.9372583 21,9.6 C21,10.2627417 20.4627417,10.8 19.8,10.8 Z M16.2,13.2 L16.2,10.8 L13.8,10.8 L13.8,13.2 L16.2,13.2 Z" id="Combined-Shape"></path>
                </g>
            </g>
        </g>
    </g>
</svg>